<?xml version="1.0" encoding="UTF-8"?>
<svg version="1.1" xmlns="http://www.w3.org/2000/svg" width="668" height="648">
<path d="M0 0 C220.44 0 440.88 0 668 0 C668 213.84 668 427.68 668 648 C447.56 648 227.12 648 0 648 C0 434.16 0 220.32 0 0 Z " fill="#FEFEFE" transform="translate(0,0)"/>
<path d="M0 0 C1.65 0 3.3 0 5 0 C6.31626692 3.61973402 7 6.09567131 7 10 C7.66 10 8.32 10 9 10 C9.23783203 10.81791016 9.23783203 10.81791016 9.48046875 11.65234375 C12.12508103 20.19984752 15.55924574 26.73332018 22 33 C22.27585937 33.77472656 22.55171875 34.54945313 22.8359375 35.34765625 C24.29728787 38.67737739 26.197615 40.31776099 28.9375 42.6875 C30.25041016 43.83798828 30.25041016 43.83798828 31.58984375 45.01171875 C34.03026522 47.09355295 34.03026522 47.09355295 37 49 C37 49.66 37 50.32 37 51 C37.70125 51.2475 38.4025 51.495 39.125 51.75 C42.37002459 53.16088026 45.10316737 54.97895398 48 57 C47.67 57.99 47.34 58.98 47 60 C42.71 60.33 38.42 60.66 34 61 C34.33 78.16 34.66 95.32 35 113 C125.09 113.495 125.09 113.495 217 114 C217 134.79 217 155.58 217 177 C186.90973176 177.0220449 156.81946798 177.04050929 126.72919392 177.05106533 C123.17688447 177.05231604 119.62457504 177.05361036 116.07226562 177.05493164 C115.01146287 177.05532511 115.01146287 177.05532511 113.92922975 177.05572652 C102.47782886 177.06007801 91.02643299 177.0679627 79.57503508 177.0771528 C67.82513748 177.08650381 56.07524251 177.09205869 44.32534134 177.09408849 C37.7254939 177.09539351 31.12565785 177.09846621 24.52581406 177.10573006 C18.31580119 177.11250958 12.10580441 177.114613 5.89578819 177.11310768 C3.6149264 177.11338314 1.33406408 177.11537681 -0.94679451 177.11920547 C-4.05822832 177.12417284 -7.16960119 177.12298698 -10.28103638 177.12025452 C-11.18571407 177.12316736 -12.09039177 177.1260802 -13.02248394 177.12908131 C-13.85999499 177.12709026 -14.69750603 177.12509921 -15.56039619 177.12304783 C-16.27806762 177.12342755 -16.99573904 177.12380727 -17.73515809 177.1241985 C-20.51130347 176.97196134 -23.25751279 176.4570812 -26 176 C-26 138.05 -26 100.1 -26 61 C-30.29 61 -34.58 61 -39 61 C-40.65 60.67 -42.3 60.34 -44 60 C-43.67977341 53.6915361 -41.74398312 50.79403007 -37.5 46.25 C-36.40132306 45.02304864 -35.30367667 43.79517372 -34.20703125 42.56640625 C-33.66256348 41.9645752 -33.1180957 41.36274414 -32.55712891 40.74267578 C-26.88778635 34.39777658 -21.65873132 27.64335709 -16.5078125 20.875 C-15 19 -15 19 -13.3671875 17.4375 C-11.7413364 15.93177121 -11.7413364 15.93177121 -11 13 C-10.34 13 -9.68 13 -9 13 C-8.731875 12.278125 -8.46375 11.55625 -8.1875 10.8125 C-6.99599809 7.99052179 -5.74763594 5.51659576 -4 3 C-3.01 2.67 -2.02 2.34 -1 2 C-0.67 1.34 -0.34 0.68 0 0 Z " fill="#009851" transform="translate(205,129)"/>
<path d="M0 0 C1.13270993 0.00334608 1.13270993 0.00334608 2.2883029 0.00675976 C3.48296525 0.00441978 3.48296525 0.00441978 4.7017622 0.00203252 C7.39114996 -0.00198073 10.08048203 0.00121341 12.76987028 0.00434887 C14.68955344 0.00299498 16.60923634 0.00121511 18.52891874 -0.00096118 C23.75810518 -0.0055369 28.98727199 -0.00374539 34.2164588 -0.0005821 C39.67595426 0.00194079 45.13544799 -0.00039584 50.59494352 -0.00196826 C59.76507194 -0.00379017 68.93519231 -0.00138311 78.1053195 0.00337231 C88.723647 0.00881497 99.34195529 0.00705233 109.96028233 0.00154591 C119.05918289 -0.00298463 128.15807766 -0.00363606 137.25697899 -0.00101542 C142.69914041 0.00054768 148.1412928 0.00074022 153.58345366 -0.00255191 C158.69855417 -0.00542977 163.81362981 -0.00345651 168.92872763 0.00234234 C170.81177495 0.0036704 172.69482434 0.00327506 174.57787085 0.00107968 C177.13705729 -0.00163004 179.69616271 0.00174709 182.25534391 0.00675976 C183.01048387 0.00452904 183.76562383 0.00229832 184.54364681 0 C189.65767356 0.01959356 189.65767356 0.01959356 190.77182341 1.13374341 C190.86578398 3.06680839 190.88925858 5.00333179 190.8853488 6.93867505 C190.88527327 8.17988614 190.88519773 9.42109723 190.88511992 10.69992077 C190.88001251 12.0645808 190.87479651 13.42924043 190.86947966 14.79389966 C190.86761541 16.18252524 190.86619154 17.57115148 190.86519194 18.95977795 C190.86136727 22.62095455 190.85153744 26.28209171 190.84048796 29.94325268 C190.83027273 33.67666604 190.82569408 37.41008574 190.82065153 41.14350903 C190.80991511 48.47360517 190.79283932 55.80366877 190.77182341 63.13374341 C165.25175517 63.50038099 139.73137161 63.83039655 114.21016264 64.10722363 C111.895141 64.13240218 109.58012526 64.15807642 107.26510954 64.18379223 C99.68355645 64.26673976 92.10216538 64.33186466 84.52020597 64.36592114 C82.33789935 64.37766835 80.15561368 64.39463477 77.97339201 64.41719067 C51.52678691 64.67916845 32.67926848 57.62149902 12.77182341 40.13374341 C10.65463591 37.74702466 10.65463591 37.74702466 8.89682341 35.44624341 C8.00350309 34.29575512 8.00350309 34.29575512 7.09213591 33.12202466 C5.77182341 31.13374341 5.77182341 31.13374341 5.77182341 29.13374341 C4.84949919 28.76636059 4.84949919 28.76636059 3.90854216 28.39155591 C0.1158796 26.1589465 -0.89130223 22.16995261 -2.22817659 18.13374341 C-2.76605191 15.43547632 -3.02799079 12.88629825 -3.22817659 10.13374341 C-3.88817659 10.13374341 -4.54817659 10.13374341 -5.22817659 10.13374341 C-5.4222984 8.65543119 -5.6082979 7.17605025 -5.79067659 5.69624341 C-5.89509066 4.87253247 -5.99950472 4.04882153 -6.10708284 3.20014966 C-6.14704378 2.51823559 -6.18700472 1.83632153 -6.22817659 1.13374341 C-4.50431996 -0.59011322 -2.29854036 0.00880648 0 0 Z " fill="#003B20" transform="translate(232.22817659378052,124.8662565946579)"/>
<path d="M0 0 C1.42222193 0.00081715 1.42222193 0.00081715 2.87317562 0.00165081 C3.95990566 -0.00254368 5.0466357 -0.00673817 6.16629696 -0.01105976 C7.96252247 -0.0026305 7.96252247 -0.0026305 9.79503536 0.00596905 C11.05193172 0.0040707 12.30882809 0.00217236 13.60381222 0.00021648 C17.05617832 -0.00463906 20.50841556 0.00303221 23.96076608 0.01316953 C27.56778813 0.02193695 31.17480598 0.02019285 34.78183651 0.01980877 C40.83882975 0.0207459 46.89577296 0.02943712 52.95275021 0.04307842 C59.96463644 0.05881155 66.97646787 0.06407631 73.98837048 0.06334287 C80.72344734 0.06273342 87.45850628 0.06783077 94.19357777 0.07613468 C97.06478102 0.07967348 99.93597794 0.08149878 102.80718327 0.08202839 C106.81097302 0.08321551 110.81469728 0.09291168 114.81847286 0.1036253 C116.61773472 0.10294552 116.61773472 0.10294552 118.4533453 0.10225201 C120.07921062 0.10864948 120.07921062 0.10864948 121.73792171 0.1151762 C122.68569264 0.11685205 123.63346357 0.11852789 124.60995483 0.12025452 C126.74205685 0.24888897 126.74205685 0.24888897 127.74205685 1.24888897 C127.74205685 21.70888897 127.74205685 42.16888897 127.74205685 63.24888897 C69.66205685 63.24888897 11.58205685 63.24888897 -48.25794315 63.24888897 C-47.13486623 55.38735051 -47.13486623 55.38735051 -43.69544315 51.43638897 C-42.62036503 50.16795147 -42.62036503 50.16795147 -41.52356815 48.87388897 C-40.7759119 48.00763897 -40.02825565 47.14138897 -39.25794315 46.24888897 C-37.81195077 44.48498337 -36.3741446 42.71432854 -34.94544315 40.93638897 C-33.99218143 39.76656475 -33.99218143 39.76656475 -33.0196619 38.57310772 C-31.17174569 36.25053917 -31.17174569 36.25053917 -29.7149744 33.45592022 C-29.23415409 32.72759991 -28.75333378 31.99927959 -28.25794315 31.24888897 C-27.26794315 31.24888897 -26.27794315 31.24888897 -25.25794315 31.24888897 C-24.8712244 30.17574444 -24.8712244 30.17574444 -24.47669315 29.08092022 C-23.1840955 26.07728786 -21.63017226 23.61383525 -19.75794315 20.93638897 C-18.8452869 19.61187725 -18.8452869 19.61187725 -17.91419315 18.26060772 C-17.0943494 17.26480694 -17.0943494 17.26480694 -16.25794315 16.24888897 C-15.59794315 16.24888897 -14.93794315 16.24888897 -14.25794315 16.24888897 C-14.01044315 15.69459209 -13.76294315 15.14029522 -13.50794315 14.56920147 C-12.02486573 11.816239 -10.22844343 9.55079189 -8.25794315 7.12388897 C-7.20606815 5.82064678 -7.20606815 5.82064678 -6.13294315 4.49107647 C-2.61872503 0.2886573 -2.61872503 0.2886573 0 0 Z " fill="#003B20" transform="translate(294.25794315338135,358.7511110305786)"/>
<path d="M0 0 C2.10388569 -0.05402274 4.20816714 -0.09280256 6.3125 -0.125 C8.07013672 -0.15980469 8.07013672 -0.15980469 9.86328125 -0.1953125 C13 0 13 0 16 2 C16.35352612 3.96400642 16.35352612 3.96400642 16.32279968 6.41653442 C16.31850952 7.3448407 16.31421936 8.27314697 16.30979919 9.22958374 C16.28966263 10.25097443 16.26952606 11.27236511 16.2487793 12.32470703 C16.23946381 13.39789185 16.23014832 14.47107666 16.22055054 15.57678223 C16.18607186 19.1374405 16.13019531 22.69743252 16.07421875 26.2578125 C16.04619779 28.72116665 16.01950611 31.18453625 15.99409485 33.6479187 C15.92351677 40.1418779 15.83481736 46.6354697 15.74243164 53.12915039 C15.65139525 59.75133977 15.57737527 66.37370946 15.50195312 72.99609375 C15.35135544 85.99763446 15.18220394 98.9988658 15 112 C16.485 111.01 16.485 111.01 18 110 C19.87942237 109.75160301 19.87942237 109.75160301 22.03922558 109.75390434 C22.86379668 109.74992225 23.68836779 109.74594015 24.5379259 109.74183738 C25.89637739 109.75057591 25.89637739 109.75057591 27.28227234 109.75949097 C28.72556946 109.75692769 28.72556946 109.75692769 30.19802409 109.75431263 C33.43637138 109.75100685 36.67451346 109.7620394 39.9128418 109.77294922 C42.22852575 109.7735131 44.54421006 109.77319723 46.8598938 109.77206421 C53.15913315 109.77148878 59.45829682 109.78327378 65.75751853 109.79721212 C72.33588515 109.8096879 78.91425338 109.81088749 85.49263 109.81326294 C96.5381502 109.818446 107.58364378 109.83128408 118.62915039 109.84912109 C130.00675314 109.86747531 141.38434833 109.88163406 152.76196289 109.89013672 C153.46311868 109.89066217 154.16427447 109.89118761 154.88667741 109.89172898 C158.4041222 109.89433903 161.92156705 109.89686645 165.43901193 109.89935279 C194.62602607 109.92009081 223.81301266 109.95546969 253 110 C252.99770889 109.18761871 252.99541779 108.37523743 252.99305725 107.53823853 C252.98550232 104.4599513 252.98006817 101.38166887 252.97596741 98.30337524 C252.9727427 96.34165122 252.96717751 94.37993149 252.96154785 92.41821289 C252.92795799 62.21612604 252.92795799 62.21612604 255 56 C253.59441377 56.00138269 253.59441377 56.00138269 252.16043186 56.00279331 C229.39437436 56.02496044 206.62831824 56.04141032 183.86225224 56.05181217 C172.8529071 56.0569757 161.84356908 56.06401948 150.83422852 56.07543945 C141.24218108 56.08538456 131.65013879 56.09185301 122.05808634 56.09408849 C116.97584708 56.0953959 111.89362256 56.09848361 106.81138802 56.10573006 C102.03364329 56.11248754 97.25591945 56.11461752 92.47817039 56.11310768 C90.71928926 56.11338413 88.96040747 56.11539086 87.20153046 56.11920547 C84.8108869 56.12413848 82.42032354 56.12299976 80.02967834 56.12025452 C78.97181872 56.12462378 78.97181872 56.12462378 77.8925882 56.12908131 C73.11412121 56.11412121 73.11412121 56.11412121 72 55 C71.90653085 53.34261557 71.88255023 51.68125356 71.88647461 50.02124023 C71.88658791 48.42970375 71.88658791 48.42970375 71.88670349 46.80601501 C71.89186478 45.651866 71.89702606 44.49771698 71.90234375 43.30859375 C71.9037587 42.13361832 71.90517365 40.95864288 71.90663147 39.74806213 C71.91225008 35.97784936 71.92480574 32.20769496 71.9375 28.4375 C71.9425126 25.88867273 71.94707592 23.33984453 71.95117188 20.79101562 C71.96222556 14.52732367 71.97898179 8.26366601 72 2 C72.33 2 72.66 2 73 2 C73.33 19.16 73.66 36.32 74 54 C164.09 54.495 164.09 54.495 256 55 C256 75.79 256 96.58 256 118 C225.90973176 118.0220449 195.81946798 118.04050929 165.72919392 118.05106533 C162.17688447 118.05231604 158.62457504 118.05361036 155.07226562 118.05493164 C154.36506379 118.05519395 153.65786195 118.05545626 152.92922975 118.05572652 C141.47782886 118.06007801 130.02643299 118.0679627 118.57503508 118.0771528 C106.82513748 118.08650381 95.07524251 118.09205869 83.32534134 118.09408849 C76.7254939 118.09539351 70.12565785 118.09846621 63.52581406 118.10573006 C57.31580119 118.11250958 51.10580441 118.114613 44.89578819 118.11310768 C42.6149264 118.11338314 40.33406408 118.11537681 38.05320549 118.11920547 C34.94177168 118.12417284 31.83039881 118.12298698 28.71896362 118.12025452 C27.81428593 118.12316736 26.90960823 118.1260802 25.97751606 118.12908131 C25.14000501 118.12709026 24.30249397 118.12509921 23.43960381 118.12304783 C22.72193238 118.12342755 22.00426096 118.12380727 21.26484191 118.1241985 C18.48869653 117.97196134 15.74248721 117.4570812 13 117 C13 79.05 13 41.1 13 2 C8.71 2 4.42 2 0 2 C0 1.34 0 0.68 0 0 Z " fill="#1A9D5D" transform="translate(166,188)"/>
<path d="M0 0 C0.33 0 0.66 0 1 0 C1 1.65 1 3.3 1 5 C-3.29 5.66 -7.58 6.32 -12 7 C-12 22.51 -12 38.02 -12 54 C-10.515 53.505 -10.515 53.505 -9 53 C-6.68849361 52.89911764 -4.37413385 52.86058284 -2.06044006 52.85282898 C-0.99502138 52.84731395 -0.99502138 52.84731395 0.09192091 52.8416875 C2.47787318 52.83065238 4.86378189 52.82680718 7.24975586 52.82299805 C8.95797362 52.81673344 10.66619001 52.81008665 12.37440491 52.80308533 C17.01897107 52.78567958 21.66352694 52.77512547 26.30811763 52.7668798 C29.20826252 52.76173044 32.1084042 52.75565478 35.00854683 52.74936867 C44.07797862 52.73032074 53.14740227 52.7160868 62.21685022 52.7077567 C72.69497923 52.69797425 83.17289755 52.67162682 93.65095228 52.63125581 C101.74527766 52.60113595 109.83954248 52.5862919 117.93392283 52.58297569 C122.7709386 52.58062117 127.60772918 52.57160822 132.44468498 52.54651451 C136.99276632 52.52329984 141.54047311 52.51897376 146.08859825 52.52927589 C147.7591552 52.52977292 149.42973019 52.52340348 151.10023117 52.50971985 C153.37842603 52.49209999 155.65526208 52.49905657 157.93345642 52.51225281 C159.84678473 52.50867028 159.84678473 52.50867028 161.79876614 52.50501537 C165.52738875 53.08154647 166.6961413 54.08825858 169 57 C145.28741989 57.02332631 121.57484149 57.04097785 97.86225224 57.05181217 C86.8529071 57.0569757 75.84356908 57.06401948 64.83422852 57.07543945 C55.24218108 57.08538456 45.65013879 57.09185301 36.05808634 57.09408849 C30.97584708 57.0953959 25.89362256 57.09848361 20.81138802 57.10573006 C16.03364329 57.11248754 11.25591945 57.11461752 6.47817039 57.11310768 C4.71928926 57.11338413 2.96040747 57.11539086 1.20153046 57.11920547 C-1.1891131 57.12413848 -3.57967646 57.12299976 -5.97032166 57.12025452 C-7.02818128 57.12462378 -7.02818128 57.12462378 -8.1074118 57.12908131 C-12.88587879 57.11412121 -12.88587879 57.11412121 -14 56 C-14.09340434 54.37325222 -14.11745171 52.74245949 -14.11352539 51.11303711 C-14.11344986 50.07203354 -14.11337433 49.03102997 -14.11329651 47.95848083 C-14.10813522 46.8262056 -14.10297394 45.69393036 -14.09765625 44.52734375 C-14.0962413 43.37456436 -14.09482635 42.22178497 -14.09336853 41.03407288 C-14.08775005 37.33518936 -14.07519442 33.63636536 -14.0625 29.9375 C-14.05748738 27.43684983 -14.05292406 24.93619871 -14.04882812 22.43554688 C-14.03777462 16.29034412 -14.02101852 10.14517631 -14 4 C-10.8241293 3.33538984 -7.93508762 2.88245614 -4.6875 2.9375 C-2.8621875 2.9684375 -2.8621875 2.9684375 -1 3 C-0.67 2.01 -0.34 1.02 0 0 Z " fill="#B7E2CB" transform="translate(253,186)"/>
<path d="M0 0 C16.80223821 -0.02332875 33.60447139 -0.04097906 50.40672207 -0.05181217 C58.20775836 -0.05697518 66.00878461 -0.06401797 73.80981445 -0.07543945 C80.60676313 -0.08538615 87.40370454 -0.09185339 94.20066029 -0.09408849 C97.80178131 -0.09539563 101.40288152 -0.09848164 105.0039959 -0.10573006 C109.01756602 -0.11374364 113.03109964 -0.11399115 117.04467773 -0.11352539 C118.24732773 -0.11712067 119.44997772 -0.12071594 120.68907166 -0.12442017 C121.77587219 -0.1230455 122.86267273 -0.12167084 123.98240662 -0.12025452 C124.93277518 -0.12117631 125.88314375 -0.1220981 126.86231136 -0.12304783 C129 0 129 0 130 1 C130 21.46 130 41.92 130 63 C71.92 63 13.84 63 -46 63 C-44.87203001 55.10421009 -44.87203001 55.10421009 -42 51.5625 C-41.46375 50.88316406 -40.9275 50.20382812 -40.375 49.50390625 C-39.92125 49.00761719 -39.4675 48.51132812 -39 48 C-38.67 48 -38.34 48 -38 48 C-38 50.64 -38 53.28 -38 56 C-39.485 56.495 -39.485 56.495 -41 57 C-41 57.66 -41 58.32 -41 59 C-40.34 59 -39.68 59 -39 59 C-39 59.66 -39 60.32 -39 61 C15.45 61 69.9 61 126 61 C126.33 60.01 126.66 59.02 127 58 C127.66 58 128.32 58 129 58 C128.96970703 56.87207031 128.93941406 55.74414062 128.90820312 54.58203125 C128.79424779 50.31776314 128.68311681 46.05342496 128.57275391 41.7890625 C128.52499803 39.9583137 128.47651914 38.12758359 128.42724609 36.296875 C128.35574988 33.63546505 128.28702839 30.97399424 128.21875 28.3125 C128.18593933 27.12394409 128.18593933 27.12394409 128.15246582 25.91137695 C127.95274023 17.93440931 128 9.98923305 128 2 C85.76 1.67 43.52 1.34 0 1 C0 0.67 0 0.34 0 0 Z " fill="#19422F" transform="translate(292,359)"/>
<path d="M0 0 C4.73249953 -0.00563194 9.46473214 -0.03007866 14.19714546 -0.05797195 C17.89969727 -0.07652731 21.60218085 -0.08179863 25.30477524 -0.08333588 C27.05346117 -0.08634501 28.80214641 -0.0943141 30.55078506 -0.10752106 C32.96214234 -0.1245398 35.37278711 -0.1227199 37.78417969 -0.11621094 C38.49039459 -0.12542572 39.1966095 -0.1346405 39.92422485 -0.14413452 C44.66362347 -0.10397874 48.03773843 0.83412515 51.44384766 4.24023438 C51.53780823 6.17329936 51.56128283 8.10982276 51.55737305 10.04516602 C51.55729752 11.28637711 51.55722198 12.5275882 51.55714417 13.80641174 C51.55203676 15.17107177 51.54682076 16.5357314 51.54150391 17.90039062 C51.53963966 19.28901621 51.53821579 20.67764245 51.53721619 22.06626892 C51.53339152 25.72744552 51.52356169 29.38858268 51.51251221 33.04974365 C51.50229698 36.78315701 51.49771833 40.51657671 51.49267578 44.25 C51.48193936 51.58009614 51.46486357 58.91015974 51.44384766 66.24023438 C51.11384766 66.24023438 50.78384766 66.24023438 50.44384766 66.24023438 C50.11384766 46.11023438 49.78384766 25.98023438 49.44384766 5.24023438 C26.56494313 5.21111539 26.56494313 5.21111539 3.68603516 5.19140625 C-5.63949125 5.18546507 -14.96500864 5.17846843 -24.29052734 5.16479492 C-31.08125967 5.15484276 -37.87198472 5.14837967 -44.66272414 5.14614588 C-48.25996466 5.14483968 -51.85718433 5.14175953 -55.45441818 5.13450432 C-59.46538985 5.1264799 -63.47632502 5.12624358 -67.48730469 5.12670898 C-68.68635941 5.12311371 -69.88541412 5.11951843 -71.12080383 5.11581421 C-72.75306664 5.11787621 -72.75306664 5.11787621 -74.41830444 5.11997986 C-75.8424746 5.11859717 -75.8424746 5.11859717 -77.29541588 5.11718655 C-79.59077004 5.09173384 -79.59077004 5.09173384 -81.55615234 6.24023438 C-81.55615234 5.25023437 -81.55615234 4.26023437 -81.55615234 3.24023438 C-77.90902222 0.93096132 -74.37332067 0.90007493 -70.18554688 0.83496094 C-69.44624813 0.81622169 -68.70694939 0.79748245 -67.94524765 0.77817535 C-65.48493157 0.71903534 -63.02460168 0.67448373 -60.56396484 0.63085938 C-58.81754819 0.59371716 -57.07113917 0.55621399 -55.32473755 0.51837158 C-36.88520835 0.13978302 -18.44302032 0.01881548 0 0 Z " fill="#D6E7DB" transform="translate(371.55615234375,354.759765625)"/>
<path d="M0 0 C1.13373311 0.00436926 1.13373311 0.00436926 2.29036993 0.00882679 C3.48609063 0.00754515 3.48609063 0.00754515 4.70596731 0.00623763 C7.39769296 0.00458039 10.08935734 0.01010815 12.78107733 0.01555592 C14.70238265 0.01583776 16.62368808 0.01568011 18.54499334 0.01511341 C23.77824765 0.01482533 29.01147926 0.02072372 34.24472827 0.02768737 C39.70735921 0.03391921 45.16999062 0.03452457 50.63262457 0.03571278 C60.98468355 0.0388266 71.33673204 0.04704067 81.68878639 0.05706227 C93.47092983 0.06822184 105.25307376 0.07373346 117.03522116 0.0787577 C141.27920704 0.08922324 165.52318359 0.10682366 189.76716131 0.12908131 C189.76716131 0.45908131 189.76716131 0.78908131 189.76716131 1.12908131 C188.79771487 1.13331325 187.82826843 1.13754519 186.82944483 1.14190537 C163.25246934 1.24504939 139.67552476 1.35379151 116.09860224 1.46842057 C104.69703534 1.52372413 93.29546532 1.57720145 81.89387029 1.62639576 C71.95750497 1.66927268 62.02116243 1.71555957 52.08483231 1.76595986 C46.82250919 1.79253249 41.5601905 1.8173849 36.29784101 1.83815533 C31.34605754 1.8577538 26.39431731 1.88190724 21.44257253 1.90957218 C19.62410353 1.9189256 17.80562506 1.92660701 15.98714155 1.93250042 C13.50591526 1.94079066 11.02479307 1.95507549 8.54360479 1.97086293 C7.82277977 1.97184103 7.10195475 1.97281914 6.35928655 1.97382689 C2.70641825 2.00374895 -0.67954642 2.26436788 -4.23283869 3.12908131 C-4.23283869 5.43908131 -4.23283869 7.74908131 -4.23283869 10.12908131 C-6.08348188 7.00612093 -6.52640023 4.74967363 -6.23283869 1.12908131 C-4.50788108 -0.5958763 -2.29964958 0.00672102 0 0 Z " fill="#19432F" transform="translate(232.23283869028091,124.8709186911583)"/>
<path d="M0 0 C0.99 0.33 1.98 0.66 3 1 C2.2884375 1.8353125 2.2884375 1.8353125 1.5625 2.6875 C-0.38456424 5.24804988 -0.38456424 5.24804988 -1 10 C4.94 10.33 10.88 10.66 17 11 C17 48.62 17 86.24 17 125 C16.67 125 16.34 125 16 125 C15.67 88.04 15.34 51.08 15 13 C9.72 13 4.44 13 -1 13 C-2.66561399 11.33438601 -2.17115945 9.34037295 -2.1875 7.0625 C-2.20167969 6.16660156 -2.21585938 5.27070313 -2.23046875 4.34765625 C-2 2 -2 2 0 0 Z " fill="#CCFEE3" transform="translate(162,179)"/>
<path d="M0 0 C4.75349085 1.38192554 6.55069283 3.59931497 9.3125 7.625 C10.00988281 8.62789062 10.70726562 9.63078125 11.42578125 10.6640625 C11.94527344 11.43492187 12.46476562 12.20578125 13 13 C9.3558226 15.4294516 7.28758728 15.16179575 3 15 C2.67 16.65 2.34 18.3 2 20 C-1.7952131 18.50902342 -3.61042731 16.24299151 -6 13 C-5.0409375 12.7215625 -5.0409375 12.7215625 -4.0625 12.4375 C-1.61268392 11.08233339 -1.61268392 11.08233339 -1.3125 7.625 C-1.209375 6.42875 -1.10625 5.2325 -1 4 C-0.69096017 2.66082739 -0.37057089 1.32346746 0 0 Z " fill="#DCE8DF" transform="translate(233,152)"/>
<path d="M0 0 C-0.73414188 3.86258738 -2.49084732 5.93822554 -5.109375 8.85546875 C-8.21584922 12.37913476 -11.11040252 16.0765909 -14.046875 19.7421875 C-16 22 -16 22 -18 23 C-17.8125 20.25 -17.8125 20.25 -17 17 C-15.37373596 15.61767557 -13.7074998 14.28062485 -12 13 C-11.36707617 10.88719655 -11.36707617 10.88719655 -11 9 C-10.01 8.67 -9.02 8.34 -8 8 C-7.67 5.36 -7.34 2.72 -7 0 C-3.86650268 -1.04449911 -3.01031744 -0.93423645 0 0 Z " fill="#D8F0E0" transform="translate(194,142)"/>
<path d="M0 0 C1.65 0 3.3 0 5 0 C5.33 1.65 5.66 3.3 6 5 C3.03 4.505 3.03 4.505 0 4 C-0.144375 4.78375 -0.28875 5.5675 -0.4375 6.375 C-1 9 -1 9 -2 11 C-5.0625 11.625 -5.0625 11.625 -8 12 C-8.33 12.99 -8.66 13.98 -9 15 C-9.66 15 -10.32 15 -11 15 C-11 14.34 -11 13.68 -11 13 C-10.34 13 -9.68 13 -9 13 C-8.731875 12.278125 -8.46375 11.55625 -8.1875 10.8125 C-6.99599809 7.99052179 -5.74763594 5.51659576 -4 3 C-3.01 2.67 -2.02 2.34 -1 2 C-0.67 1.34 -0.34 0.68 0 0 Z " fill="#20965B" transform="translate(205,129)"/>
<path d="M0 0 C0.99 0.33 1.98 0.66 3 1 C2.2884375 1.8353125 2.2884375 1.8353125 1.5625 2.6875 C-0.38456424 5.24804988 -0.38456424 5.24804988 -1 10 C4.94 10.33 10.88 10.66 17 11 C17 12.98 17 14.96 17 17 C16.34 17 15.68 17 15 17 C15 15.68 15 14.36 15 13 C13.85660156 13.01160156 12.71320313 13.02320313 11.53515625 13.03515625 C10.04427246 13.04453288 8.55338691 13.05363321 7.0625 13.0625 C5.93038086 13.07506836 5.93038086 13.07506836 4.77539062 13.08789062 C2.85005687 13.09652441 0.92464419 13.05224333 -1 13 C-2.66561399 11.33438601 -2.17115945 9.34037295 -2.1875 7.0625 C-2.20167969 6.16660156 -2.21585938 5.27070313 -2.23046875 4.34765625 C-2 2 -2 2 0 0 Z " fill="#C3F2D7" transform="translate(162,179)"/>
<path d="M0 0 C0.66 0.33 1.32 0.66 2 1 C1.45276317 4.37462715 0.9451 6.08235 -1 9 C-1.99 9 -2.98 9 -4 9 C-4 10.32 -4 11.64 -4 13 C-5.65 13 -7.3 13 -9 13 C-8.34 11.35 -7.68 9.7 -7 8 C-6.01 8 -5.02 8 -4 8 C-3.566875 6.8553125 -3.566875 6.8553125 -3.125 5.6875 C-2 3 -2 3 0 0 Z " fill="#204A36" transform="translate(273,382)"/>
<path d="M0 0 C0.33 0 0.66 0 1 0 C1.29296875 6.0546875 1.29296875 6.0546875 1 8 C0.01 8.66 -0.98 9.32 -2 10 C-2.33 10.99 -2.66 11.98 -3 13 C-3.99 13 -4.98 13 -6 13 C-6.34292736 8.83379743 -5.66129845 6.93446935 -3.0625 3.6875 C-2.51722656 2.99011719 -1.97195312 2.29273438 -1.41015625 1.57421875 C-0.94480469 1.05472656 -0.47945312 0.53523438 0 0 Z " fill="#1E4B36" transform="translate(253,407)"/>
<path d="M0 0 C0.33 0.66 0.66 1.32 1 2 C1.66 2 2.32 2 3 2 C4.03544174 3.90881434 5.05290085 5.82739204 6.0625 7.75 C6.63097656 8.81734375 7.19945312 9.8846875 7.78515625 10.984375 C9.01044806 14.02593537 9.25348607 15.04893565 8 18 C5.83590622 14.29012494 3.72722682 10.56322315 1.75 6.75 C1.41484375 6.10546875 1.0796875 5.4609375 0.734375 4.796875 C0 3 0 3 0 0 Z " fill="#B8EACF" transform="translate(214,140)"/>
<path d="M0 0 C1.01205993 3.17387501 1.0451684 3.8787585 -0.1875 7.1875 C-2 10 -2 10 -4.1875 10.875 C-5.0846875 10.936875 -5.0846875 10.936875 -6 11 C-6.33 10.01 -6.66 9.02 -7 8 C-5.56640625 5.95703125 -5.56640625 5.95703125 -3.5625 3.8125 C-2.90378906 3.09707031 -2.24507812 2.38164062 -1.56640625 1.64453125 C-1.04949219 1.10183594 -0.53257812 0.55914062 0 0 Z " fill="#249C64" transform="translate(193,145)"/>
<path d="M0 0 C0.33 0 0.66 0 1 0 C1 1.65 1 3.3 1 5 C-3.29 5.66 -7.58 6.32 -12 7 C-12 6.01 -12 5.02 -12 4 C-9.24921116 3.08307039 -7.64051087 2.89113917 -4.8125 2.9375 C-2.9253125 2.9684375 -2.9253125 2.9684375 -1 3 C-0.67 2.01 -0.34 1.02 0 0 Z " fill="#DFF6E4" transform="translate(253,186)"/>
<path d="M0 0 C1.875 0.8125 1.875 0.8125 4 2 C4.721875 2.268125 5.44375 2.53625 6.1875 2.8125 C7.0846875 3.4003125 7.0846875 3.4003125 8 4 C8.33 5.65 8.66 7.3 9 9 C5.37 7.02 1.74 5.04 -2 3 C-2 2.34 -2 1.68 -2 1 C-1.34 0.67 -0.68 0.34 0 0 Z " fill="#BCE9D3" transform="translate(244,177)"/>
<path d="M0 0 C0.99 0.33 1.98 0.66 3 1 C1.54601271 2.81598825 0.08667675 4.62769519 -1.375 6.4375 C-2.59316406 7.95150391 -2.59316406 7.95150391 -3.8359375 9.49609375 C-6 12 -6 12 -8 13 C-7.8618145 10.02901177 -7.7414883 7.78174052 -5.6328125 5.55859375 C-4.11331914 4.34081797 -2.55781137 3.16835853 -1 2 C-0.67 1.34 -0.34 0.68 0 0 Z " fill="#C2EED4" transform="translate(184,152)"/>
<path d="M0 0 C0.33 0 0.66 0 1 0 C1.125 3.375 1.125 3.375 1 7 C0.34 7.66 -0.32 8.32 -1 9 C-1.99 9 -2.98 9 -4 9 C-4.33 9.99 -4.66 10.98 -5 12 C-5.66 12 -6.32 12 -7 12 C-7 11.34 -7 10.68 -7 10 C-6.34 10 -5.68 10 -5 10 C-4.731875 9.278125 -4.46375 8.55625 -4.1875 7.8125 C-3.00645167 5.01528026 -1.66638302 2.53580025 0 0 Z " fill="#3BA370" transform="translate(201,132)"/>
<path d="M0 0 C0.99 0.33 1.98 0.66 3 1 C2.67 1.99 2.34 2.98 2 4 C-4.435 4.495 -4.435 4.495 -11 5 C-11 4.01 -11 3.02 -11 2 C-3.57142857 1.85714286 -3.57142857 1.85714286 0 3 C0 2.01 0 1.02 0 0 Z " fill="#2F9462" transform="translate(250,185)"/>
<path d="M0 0 C0.33 0 0.66 0 1 0 C0.67 2.31 0.34 4.62 0 7 C-0.639375 7.103125 -1.27875 7.20625 -1.9375 7.3125 C-2.618125 7.539375 -3.29875 7.76625 -4 8 C-4.33 8.99 -4.66 9.98 -5 11 C-5.33 10.01 -5.66 9.02 -6 8 C-4.8203125 5.95703125 -4.8203125 5.95703125 -3.125 3.8125 C-2.57070312 3.09707031 -2.01640625 2.38164062 -1.4453125 1.64453125 C-0.96835938 1.10183594 -0.49140625 0.55914062 0 0 Z " fill="#379F6D" transform="translate(167,176)"/>
<path d="M0 0 C2.475 0.99 2.475 0.99 5 2 C3.35 4.64 1.7 7.28 0 10 C-1.00000429 5.99998285 -0.80688405 3.94476647 0 0 Z " fill="#D8E7DD" transform="translate(284,360)"/>
<path d="M0 0 C0.66 0 1.32 0 2 0 C2.66 3.3 3.32 6.6 4 10 C3.01 10 2.02 10 1 10 C-0.60725635 6.78548731 -0.05748185 3.56387464 0 0 Z " fill="#C0D7C9" transform="translate(227,135)"/>
<path d="M0 0 C0.33 1.32 0.66 2.64 1 4 C1.66 4 2.32 4 3 4 C3.33 5.98 3.66 7.96 4 10 C3.01 10 2.02 10 1 10 C-1.56687367 6.1496895 -0.83288724 4.41430237 0 0 Z " fill="#1B9C5F" transform="translate(211,135)"/>
<path d="M0 0 C0.33 0 0.66 0 1 0 C1.23053497 2.84326464 1.35903101 4.46145349 -0.25 6.875 C-2 8 -2 8 -4.109375 7.5703125 C-4.73328125 7.38210937 -5.3571875 7.19390625 -6 7 C-5.02433888 5.83040013 -4.044375 4.66438823 -3.0625 3.5 C-2.51722656 2.8503125 -1.97195312 2.200625 -1.41015625 1.53125 C-0.71212891 0.77328125 -0.71212891 0.77328125 0 0 Z " fill="#299B66" transform="translate(174,168)"/>
<path d="M0 0 C0.33 1.32 0.66 2.64 1 4 C-1.31 5.98 -3.62 7.96 -6 10 C-6.66 9.67 -7.32 9.34 -8 9 C-5.36 6.03 -2.72 3.06 0 0 Z " fill="#3B9D6C" transform="translate(183,157)"/>
<path d="M0 0 C0.99 0.33 1.98 0.66 3 1 C3 1.66 3 2.32 3 3 C3.66 3 4.32 3 5 3 C5 4.65 5 6.3 5 8 C4.01 8.33 3.02 8.66 2 9 C1.34 6.03 0.68 3.06 0 0 Z " fill="#C0EED7" transform="translate(210,130)"/>
<path d="M0 0 C0.99 0.66 1.98 1.32 3 2 C2.34 3.65 1.68 5.3 1 7 C-0.32 6.34 -1.64 5.68 -3 5 C-2.625 3.0625 -2.625 3.0625 -2 1 C-1.34 0.67 -0.68 0.34 0 0 Z " fill="#D4E3D9" transform="translate(245,415)"/>
<path d="M0 0 C0.66 0 1.32 0 2 0 C1.67 1.98 1.34 3.96 1 6 C-0.65 6.33 -2.3 6.66 -4 7 C-2.79618552 4.50638429 -1.54571278 2.31856917 0 0 Z " fill="#295340" transform="translate(278,375)"/>
<path d="M0 0 C1.98 0 3.96 0 6 0 C5.01 1.98 4.02 3.96 3 6 C2.01 6 1.02 6 0 6 C0.33 5.01 0.66 4.02 1 3 C0.67 2.01 0.34 1.02 0 0 Z " fill="#D2ECD9" transform="translate(194,134)"/>
<path d="M0 0 C3.29148243 1.13499394 3.9959869 1.99283376 5.75 5.125 C6.1625 6.07375 6.575 7.0225 7 8 C3.2047869 6.50902342 1.38957269 4.24299151 -1 1 C-0.67 0.67 -0.34 0.34 0 0 Z " fill="#BCE9CD" transform="translate(228,164)"/>
<path d="M0 0 C2.31 0.33 4.62 0.66 7 1 C7 2.65 7 4.3 7 6 C5.83054208 5.19152271 4.66449539 4.37810888 3.5 3.5625 C2.8503125 3.11003906 2.200625 2.65757812 1.53125 2.19140625 C1.0259375 1.79824219 0.520625 1.40507812 0 1 C0 0.67 0 0.34 0 0 Z " fill="#244D39" transform="translate(246,165)"/>
<path d="M0 0 C0.99 0 1.98 0 3 0 C3.33 2.64 3.66 5.28 4 8 C1.47411298 5.63707344 0.11179163 4.33537489 -1 1 C-0.67 0.67 -0.34 0.34 0 0 Z " fill="#1D4A34" transform="translate(233,146)"/>
<path d="M0 0 C0.99 0.99 1.98 1.98 3 3 C2.6875 6.1875 2.6875 6.1875 2 9 C1.34 9 0.68 9 0 9 C0 6.03 0 3.06 0 0 Z " fill="#1E9D5F" transform="translate(216,148)"/>
<path d="M0 0 C0.99 0 1.98 0 3 0 C3 1.65 3 3.3 3 5 C1.35 5 -0.3 5 -2 5 C-1.34 3.35 -0.68 1.7 0 0 Z " fill="#264F3C" transform="translate(266,390)"/>
<path d="M0 0 C1.65 0 3.3 0 5 0 C5.33 1.65 5.66 3.3 6 5 C2.83884224 3.63016497 2.0072908 3.0109362 0 0 Z " fill="#B7E9CC" transform="translate(235,172)"/>
<path d="M0 0 C0.33 0 0.66 0 1 0 C1 1.65 1 3.3 1 5 C-2.3 4.67 -5.6 4.34 -9 4 C-9 3.67 -9 3.34 -9 3 C-6.36 3 -3.72 3 -1 3 C-0.67 2.01 -0.34 1.02 0 0 Z " fill="#B5DFC7" transform="translate(253,186)"/>
</svg>
